<?xml version="1.0" standalone="no"?>
<!DOCTYPE svg PUBLIC "-//W3C//DTD SVG 20010904//EN"
 "http://www.w3.org/TR/2001/REC-SVG-20010904/DTD/svg10.dtd">
<svg version="1.0" xmlns="http://www.w3.org/2000/svg"
 width="300.000000pt" height="89.000000pt" viewBox="0 0 300.000000 89.000000"
 preserveAspectRatio="xMidYMid meet">
<metadata>
Created by potrace 1.10, written by Peter Selinger 2001-2011
</metadata>
<g transform="translate(0.000000,89.000000) scale(0.100000,-0.100000)"
fill="#000000" stroke="none">
<path d="M723 777 c-28 -30 -60 -71 -71 -93 -33 -64 -132 -352 -132 -382 0
-37 -6 -42 -41 -32 -32 9 -123 -12 -135 -31 -11 -19 6 -23 34 -7 40 23 77 29
106 18 25 -9 26 -12 20 -65 -5 -37 -3 -55 4 -55 20 0 34 40 27 81 -8 46 6 51
42 17 19 -18 27 -19 47 -10 21 9 24 8 24 -14 0 -43 48 -74 67 -44 4 7 24 8 51
4 39 -5 49 -3 69 16 l24 23 20 -24 19 -24 25 23 c14 13 28 35 31 48 8 30 46
34 46 5 0 -58 31 -66 75 -21 36 37 42 37 50 1 13 -62 41 -58 78 14 l16 30 1
-37 c0 -47 31 -74 64 -55 20 11 20 12 -6 15 -37 4 -45 38 -29 115 26 128 28
129 106 147 39 9 79 21 90 28 27 16 6 15 -75 -3 -36 -8 -68 -14 -71 -15 -3 0
14 72 38 161 24 89 42 163 39 166 -13 13 -28 -15 -55 -102 -16 -51 -35 -120
-42 -152 -16 -73 -23 -83 -66 -83 -22 0 -32 -4 -27 -11 3 -6 19 -9 35 -7 18 3
29 0 29 -7 0 -32 -78 -215 -91 -215 -5 0 -11 11 -15 25 -12 47 -31 51 -67 17
-18 -18 -38 -32 -45 -32 -21 0 -13 49 14 90 27 40 27 74 0 64 -8 -3 -21 -23
-30 -44 -19 -47 -35 -59 -43 -31 -3 12 -12 21 -19 21 -14 0 -18 -11 -15 -42 3
-21 -26 -78 -39 -78 -17 0 -11 46 15 101 36 80 57 183 59 289 1 113 -7 150
-33 150 -32 0 -49 -84 -71 -350 -7 -85 -17 -144 -26 -158 -32 -50 -101 -53
-75 -4 17 32 13 76 -9 100 -26 27 -47 28 -55 2 -4 -11 -27 -36 -53 -55 -45
-35 -46 -35 -65 -16 -19 19 -18 20 53 107 80 99 129 192 159 304 30 109 27
170 -9 170 -9 0 -40 -24 -67 -53z m77 3 c0 -111 -85 -305 -185 -422 -36 -43
-70 -78 -74 -78 -15 0 7 77 65 229 61 162 89 215 140 266 43 43 54 44 54 5z
m148 -207 c-4 -96 -11 -146 -28 -198 -13 -38 -25 -65 -27 -58 -4 11 22 289 33
351 4 17 11 32 16 32 7 0 9 -45 6 -127z m-195 -339 c-11 -28 -33 -6 -33 33 0
14 2 14 19 -1 11 -10 17 -24 14 -32z m-39 -46 c-3 -4 -14 -8 -25 -8 -22 0 -26
38 -8 72 11 20 12 19 25 -17 7 -21 11 -42 8 -47z"/>
<path d="M1695 635 c12 -145 20 -351 17 -406 -5 -58 -13 -59 -55 -6 l-30 36
22 37 c14 24 19 40 12 47 -6 6 -16 -3 -27 -24 -14 -26 -19 -30 -22 -16 -2 9
-8 17 -14 17 -6 0 -8 -9 -4 -20 3 -11 8 -28 11 -37 5 -18 -10 -52 -19 -43 -2
3 -9 55 -15 115 -18 185 -35 295 -45 295 -5 0 -6 -23 -3 -52 3 -29 13 -120 22
-201 16 -152 27 -197 45 -197 6 0 16 11 22 25 l12 26 19 -31 c22 -35 61 -48
89 -31 14 9 23 9 33 1 17 -14 40 -4 60 27 l17 25 14 -21 c22 -31 40 -26 74 21
24 33 30 37 30 20 0 -12 -9 -27 -20 -34 -19 -12 -28 -38 -13 -38 4 0 27 7 51
17 42 16 43 16 59 -6 12 -17 22 -22 42 -18 97 20 117 27 134 48 l18 22 5 -21
c9 -31 29 -34 66 -9 59 41 58 40 69 8 11 -32 35 -46 63 -35 23 9 20 24 -5 21
-15 -1 -27 7 -39 28 -22 39 -44 42 -81 11 -36 -30 -49 -33 -49 -8 0 9 -5 24
-10 32 -8 12 -16 8 -49 -24 -41 -40 -61 -44 -42 -8 17 31 13 57 -10 77 -18 18
-23 18 -62 5 -31 -11 -46 -24 -58 -49 -8 -18 -23 -37 -32 -42 -14 -9 -16 -2
-14 63 2 84 -10 102 -28 41 -16 -53 -53 -113 -70 -113 -22 0 -24 38 -4 80 48
100 76 313 46 354 -11 15 -17 17 -35 7 -37 -20 -55 -100 -58 -261 -2 -80 -4
-147 -4 -150 0 -3 -10 -16 -21 -29 -19 -23 -20 -23 -33 -6 -9 13 -15 15 -20 7
-17 -27 -21 -5 -23 114 -2 158 -22 376 -35 389 -7 7 -8 -19 -3 -80z m218 -92
c-1 -85 -38 -243 -56 -243 -15 0 -2 214 18 278 24 78 40 63 38 -35z m185 -285
c-1 -13 2 -33 6 -44 5 -16 2 -23 -11 -26 -46 -12 -59 29 -21 69 27 28 28 28
26 1z"/>
</g>
</svg>
